# xmcd
#
# Track frame offsets:
#  150
#  19662
#  35836
#  55721
#  70661
#  100440
#  123979
#  148962
#  169886
#  189911
#  207721
#  228368
#  247519
#  274734
#
# Disc length: 4225 seconds
#
# Revision: 0
# Processed by: cddbd v1.5.2PL0 Copyright (c) Steve Scherf et al.
# Submitted via: AltoMP3_Maker 3.0
#
DISCID=c7107f0e
DTITLE=Tom Russell - Folk Hotel
DYEAR=1900
DGENRE=
TTITLE0=Up in the Old Hotel
TTITLE1=Leaving El Paso
TTITLE2=I'll Never Leave These Old Horses
TTITLE3=The Sparrow of Swansea
TTITLE4=All on a Belfast Morning
TTITLE5=Rise Again, Handsome Johnny
TTITLE6=Harlan Clancy
TTITLE7=The Last Time I Saw Hank
TTITLE8=The Light Beyond the Coyote Fence
TTITLE9=The Dram House down in Gutter Lane
TTITLE10=The Day They Dredged the Liffey/The Banks of Montauk/The Road to Santa Fe-O
TTITLE11=The Rooftops of Copenhagen
TTITLE12=Just Like Tom Thumb's Blues
TTITLE13=Scars on His Ankles
EXTD=
EXTT0=
EXTT1=
EXTT2=
EXTT3=
EXTT4=
EXTT5=
EXTT6=
EXTT7=
EXTT8=
EXTT9=
EXTT10=
EXTT11=
EXTT12=
EXTT13=
PLAYORDER=
